<?xml version="1.0" encoding="iso-8859-1"?>
<!-- Uploaded to: SVG Repo, www.svgrepo.com, Generator: SVG Repo Mixer Tools -->
<svg height="800px" width="800px" version="1.1" id="Layer_1" xmlns="http://www.w3.org/2000/svg" xmlns:xlink="http://www.w3.org/1999/xlink" 
	 viewBox="0 0 512.001 512.001" xml:space="preserve">
<path style="fill:#263B74;" d="M221.234,512c-51.878,0-94.085-42.207-94.085-94.086V128.852C127.15,57.803,184.951,0,256,0
	s128.852,57.803,128.852,128.852v270.553c0,10.92-8.853,19.773-19.773,19.773s-19.773-8.853-19.773-19.773V128.852
	c0-49.242-40.062-89.305-89.305-89.305c-49.241,0-89.303,40.062-89.303,89.305v289.064c0,30.073,24.466,54.539,54.538,54.539
	c30.073,0,54.539-24.466,54.539-54.539v-252.49c0-10.903-8.87-19.773-19.773-19.773c-10.903,0-19.773,8.87-19.773,19.773v218.587
	c0,10.92-8.853,19.773-19.773,19.773c-10.92,0-19.773-8.853-19.773-19.773V165.426c0-32.709,26.611-59.32,59.32-59.32
	s59.32,26.611,59.32,59.32v252.49C315.32,469.794,273.113,512,221.234,512z"/>
<g>
	<path style="fill:#6A81B5;" d="M256.001,505.344c-10.761,4.293-22.493,6.657-34.767,6.657c-51.878,0-94.085-42.207-94.085-94.086
		V128.852C127.15,57.803,184.951,0,256,0v39.547c-49.241,0-89.303,40.062-89.303,89.305v289.064
		c0,30.073,24.466,54.539,54.538,54.539c13.202,0,25.323-4.715,34.768-12.548"/>
	<path style="fill:#6A81B5;" d="M256,145.652c-10.903,0-19.773,8.87-19.773,19.773v218.587c0,10.92-8.853,19.773-19.773,19.773
		c-10.92,0-19.773-8.853-19.773-19.773V165.426c0-32.709,26.611-59.32,59.32-59.32"/>
</g>
</svg>